<mxfile host="app.diagrams.net" agent="Mozilla/5.0 (Windows NT 10.0; Win64; x64) AppleWebKit/537.36 (KHTML, like Gecko) Chrome/134.0.0.0 Safari/537.36" version="26.2.5">
  <diagram id="jhwyZz3eMwzcb240uIb9" name="Trang-1">
    <mxGraphModel dx="1283" dy="527" grid="1" gridSize="10" guides="1" tooltips="1" connect="1" arrows="1" fold="1" page="1" pageScale="1" pageWidth="827" pageHeight="1169" math="0" shadow="0">
      <root>
        <mxCell id="0" />
        <mxCell id="1" parent="0" />
        <mxCell id="iuzjiFI6SogdP5TydPmp-3" value="Vertical Container" style="swimlane;whiteSpace=wrap;html=1;" vertex="1" parent="1">
          <mxGeometry x="110" y="50" width="360" height="440" as="geometry" />
        </mxCell>
        <mxCell id="iuzjiFI6SogdP5TydPmp-10" style="edgeStyle=orthogonalEdgeStyle;rounded=0;orthogonalLoop=1;jettySize=auto;html=1;entryX=0.5;entryY=0;entryDx=0;entryDy=0;" edge="1" parent="iuzjiFI6SogdP5TydPmp-3" source="iuzjiFI6SogdP5TydPmp-2" target="iuzjiFI6SogdP5TydPmp-6">
          <mxGeometry relative="1" as="geometry" />
        </mxCell>
        <mxCell id="iuzjiFI6SogdP5TydPmp-2" value="reserveSeats" style="rounded=1;whiteSpace=wrap;html=1;" vertex="1" parent="iuzjiFI6SogdP5TydPmp-3">
          <mxGeometry x="40" y="40" width="120" height="60" as="geometry" />
        </mxCell>
        <mxCell id="iuzjiFI6SogdP5TydPmp-11" style="edgeStyle=orthogonalEdgeStyle;rounded=0;orthogonalLoop=1;jettySize=auto;html=1;entryX=0.5;entryY=0;entryDx=0;entryDy=0;" edge="1" parent="iuzjiFI6SogdP5TydPmp-3" source="iuzjiFI6SogdP5TydPmp-6" target="iuzjiFI6SogdP5TydPmp-7">
          <mxGeometry relative="1" as="geometry" />
        </mxCell>
        <mxCell id="iuzjiFI6SogdP5TydPmp-6" value="Giới hạn lại row" style="rounded=0;whiteSpace=wrap;html=1;" vertex="1" parent="iuzjiFI6SogdP5TydPmp-3">
          <mxGeometry x="40" y="130" width="120" height="30" as="geometry" />
        </mxCell>
        <mxCell id="iuzjiFI6SogdP5TydPmp-7" value="kiểm tra hợp lệ validate" style="rounded=0;whiteSpace=wrap;html=1;" vertex="1" parent="iuzjiFI6SogdP5TydPmp-3">
          <mxGeometry x="40" y="180" width="120" height="30" as="geometry" />
        </mxCell>
        <mxCell id="iuzjiFI6SogdP5TydPmp-12" value="Kiểm tra ghế còn trống" style="rounded=0;whiteSpace=wrap;html=1;" vertex="1" parent="iuzjiFI6SogdP5TydPmp-3">
          <mxGeometry x="40" y="250" width="120" height="60" as="geometry" />
        </mxCell>
        <mxCell id="iuzjiFI6SogdP5TydPmp-13" value="Text" style="text;html=1;align=center;verticalAlign=middle;whiteSpace=wrap;rounded=0;" vertex="1" parent="iuzjiFI6SogdP5TydPmp-3">
          <mxGeometry x="200" y="130" width="60" height="30" as="geometry" />
        </mxCell>
        <mxCell id="iuzjiFI6SogdP5TydPmp-4" value="Vertical Container" style="swimlane;whiteSpace=wrap;html=1;" vertex="1" parent="1">
          <mxGeometry x="470" y="50" width="360" height="440" as="geometry" />
        </mxCell>
      </root>
    </mxGraphModel>
  </diagram>
</mxfile>
